# xmcd
#
# Track frame offsets:
# 150
# 20336
# 40088
# 56541
# 73478
# 90551
# 107534
# 128212
# 151100
# 170626
#
# Disc length: 2551 seconds
#
# Revision: 0
# Processed by: cddbd v1.4PL0 Copyright (c) Steve Scherf et al.
# Submitted via: plextools 2.01
#
DISCID=7d09f50a
DTITLE=Beverly Heath - The Word
DYEAR=2003
DGENRE=Gospel
TTITLE0=Beverly Heath - The Word
TTITLE1=Beverly Heath - Lean On Me
TTITLE2=Beverly Heath - Call The Lord
TTITLE3=Beverly Heath - I Need Your Love
TTITLE4=Beverly Heath - He Loves Me
TTITLE5=Beverly Heath - Gave You Grace
TTITLE6=Beverly Heath - Like Any Other Friend
TTITLE7=Beverly Heath - When He Looks At Me
TTITLE8=Beverly Heath - In The Garden
TTITLE9=Beverly Heath - It's Alright
EXTD=
EXTT0=
EXTT1=
EXTT2=
EXTT3=
EXTT4=
EXTT5=
EXTT6=
EXTT7=
EXTT8=
EXTT9=
PLAYORDER=
